<svg width="64" height="64" viewBox="0 0 64 64" fill="none" xmlns="http://www.w3.org/2000/svg">
<path d="M40.3522 20.39C41.0842 21.122 42.2702 21.124 43.0022 20.39L45.6102 17.782C46.3412 17.05 46.3392 15.864 45.6102 15.131L39.0272 8.54998C38.2972 7.81798 37.1112 7.81798 36.3792 8.54998L33.7702 11.158C33.0402 11.89 33.0402 13.076 33.7702 13.806L40.3522 20.39Z" fill="url(#paint0_linear_2_1674)"/>
<path d="M24.766 36.2682C25.497 36.9972 26.683 36.9972 27.414 36.2682L30.023 33.6582C30.755 32.9282 30.755 31.7412 30.023 31.0092L23.44 24.4262C22.709 23.6962 21.523 23.6942 20.791 24.4262L18.183 27.0342C17.451 27.7662 17.453 28.9522 18.183 29.6842L24.766 36.2682Z" fill="url(#paint1_linear_2_1674)"/>
<path d="M54.6481 36.8941L52.0011 34.2441C51.2671 33.5141 50.0841 33.5141 49.3531 34.2441L48.1921 35.4041L36.9871 24.1971L39.4141 21.7691L32.6811 15.0381L30.2531 17.4661L27.1611 20.5561L24.7871 22.9301L31.5191 29.6631L33.8961 27.2901L45.0991 38.4951L44.0511 39.5441C43.3191 40.2731 43.3171 41.4601 44.0511 42.1921L46.6981 44.8401C47.4321 45.5741 48.6171 45.5741 49.3481 44.8401L54.6471 39.5431C55.3801 38.8101 55.3801 37.6261 54.6481 36.8941Z" fill="url(#paint2_linear_2_1674)"/>
<path d="M35.077 44.9425C35.077 43.7435 34.105 42.7695 32.904 42.7695H15.936C14.736 42.7695 13.763 43.7435 13.763 44.9425V48.4695H9V55.8585H39.558V48.4695H35.077V44.9425Z" fill="url(#paint3_linear_2_1674)"/>
<defs>
<linearGradient id="paint0_linear_2_1674" x1="39.6902" y1="8.00098" x2="39.6902" y2="20.9397" gradientUnits="userSpaceOnUse">
<stop stop-color="#EF8080"/>
<stop offset="1" stop-color="#F0145A"/>
</linearGradient>
<linearGradient id="paint1_linear_2_1674" x1="24.1034" y1="23.8779" x2="24.1034" y2="36.8149" gradientUnits="userSpaceOnUse">
<stop stop-color="#EF8080"/>
<stop offset="1" stop-color="#F0145A"/>
</linearGradient>
<linearGradient id="paint2_linear_2_1674" x1="39.992" y1="15.0381" x2="39.992" y2="45.3906" gradientUnits="userSpaceOnUse">
<stop stop-color="#EF8080"/>
<stop offset="1" stop-color="#F0145A"/>
</linearGradient>
<linearGradient id="paint3_linear_2_1674" x1="24.279" y1="42.7695" x2="24.279" y2="55.8585" gradientUnits="userSpaceOnUse">
<stop stop-color="#EF8080"/>
<stop offset="1" stop-color="#F0145A"/>
</linearGradient>
</defs>
</svg>
