<svg width="64" height="64" viewBox="0 0 64 64" fill="none" xmlns="http://www.w3.org/2000/svg">
<path d="M41.2317 37.697C43.5839 37.697 45.9096 38.2854 47.9577 39.3984C48.3296 39.5989 48.6709 39.8377 49.0194 40.0677C52.3807 33.4878 54.1545 26.5288 54.1545 19.7398C54.1545 19.3582 54.1545 18.9644 54.1423 18.5706C54.1177 18.0168 53.7238 17.5367 53.1699 17.4137C45.7361 15.7891 39.0038 11.7644 33.7115 5.7829L32.9238 4.88439C32.6899 4.61366 32.3577 4.46597 32.0007 4.46597C31.6192 4.41677 31.3238 4.60134 31.0899 4.85983L29.8838 6.18908C24.8623 11.7152 18.5361 15.5306 11.5946 17.229L10.7946 17.4259C10.253 17.5491 9.8715 18.0291 9.85918 18.5829C9.41612 35.8875 19.6315 48.3306 24.0377 52.8844C25.2306 54.1092 26.5606 55.3266 27.8253 56.3329C27.3509 54.9021 27.0779 53.3966 27.0779 51.8509C27.0779 44.0462 33.427 37.697 41.2317 37.697Z" fill="url(#paint0_linear_2_1667)"/>
<path d="M46.7822 41.5613C45.0837 40.6382 43.1637 40.1582 41.2314 40.1582C34.7822 40.1582 29.5391 45.4013 29.5391 51.8505C29.5391 54.029 30.1299 56.1582 31.2622 57.9797C33.416 61.4628 37.133 63.5428 41.2314 63.5428C47.6683 63.5428 52.9237 58.2997 52.9237 51.8505C52.9237 47.5428 50.5729 43.6043 46.7822 41.5613ZM47.2196 50.2937L38.0747 57.4103L34.9527 52.5269C34.5862 51.9542 34.7538 51.1934 35.3265 50.8274C35.8999 50.4608 36.6613 50.6297 37.0261 51.2012L38.6937 53.8093L45.7076 48.3514C46.243 47.9337 47.0171 48.0293 47.4347 48.5666C47.8524 49.1032 47.7556 49.8767 47.2196 50.2937Z" fill="url(#paint1_linear_2_1667)"/>
<defs>
<linearGradient id="paint0_linear_2_1667" x1="31.9999" y1="4.45801" x2="31.9999" y2="56.3329" gradientUnits="userSpaceOnUse">
<stop stop-color="#EF8080"/>
<stop offset="1" stop-color="#F0145A"/>
</linearGradient>
<linearGradient id="paint1_linear_2_1667" x1="41.2314" y1="40.1582" x2="41.2314" y2="63.5428" gradientUnits="userSpaceOnUse">
<stop stop-color="#EF8080"/>
<stop offset="1" stop-color="#F0145A"/>
</linearGradient>
</defs>
</svg>
