<svg width="64" height="64" viewBox="0 0 64 64" fill="none" xmlns="http://www.w3.org/2000/svg">
<path fill-rule="evenodd" clip-rule="evenodd" d="M53.4512 35.0767V52.3718C53.4512 55.4652 51.0269 58.0002 48.0631 58.0002H15.9701C13.0063 58.0002 10.582 55.4652 10.582 52.3718V35.0767H27.2481V42.5875L32.0166 45.7209L36.7851 42.5875V35.0767H53.4512Z" fill="url(#paint0_linear_2_1646)"/>
<path fill-rule="evenodd" clip-rule="evenodd" d="M28.9185 35.0767V41.6851L32.0166 43.7207L35.1146 41.6851V35.0767H28.9185Z" fill="url(#paint1_linear_2_1646)"/>
<path fill-rule="evenodd" clip-rule="evenodd" d="M12.0732 15.1426H51.9597C53.8421 15.1426 55.3805 16.8507 55.3805 18.938V29.1912C55.3805 31.2786 53.8421 32.9867 51.9597 32.9867H36.3137H27.7192H12.0732C10.1908 32.9867 8.65234 31.2786 8.65234 29.1912V18.938C8.65234 16.8507 10.1908 15.1426 12.0732 15.1426Z" fill="url(#paint2_linear_2_1646)"/>
<path fill-rule="evenodd" clip-rule="evenodd" d="M23.7117 5.95459H40.3213C41.8644 5.95459 43.1272 7.21739 43.1272 8.76054V13.1379H39.5697V10.5511C39.5697 9.85371 38.9996 9.28121 38.3022 9.28121H25.7308C25.0334 9.28121 24.4633 9.85371 24.4633 10.5511V13.1379H20.9058V8.76054C20.9058 7.21739 22.1686 5.95459 23.7117 5.95459Z" fill="url(#paint3_linear_2_1646)"/>
<defs>
<linearGradient id="paint0_linear_2_1646" x1="32.0166" y1="35.0767" x2="32.0166" y2="58.0002" gradientUnits="userSpaceOnUse">
<stop stop-color="#EF8080"/>
<stop offset="1" stop-color="#F0145A"/>
</linearGradient>
<linearGradient id="paint1_linear_2_1646" x1="32.0166" y1="35.0767" x2="32.0166" y2="43.7207" gradientUnits="userSpaceOnUse">
<stop stop-color="#EF8080"/>
<stop offset="1" stop-color="#F0145A"/>
</linearGradient>
<linearGradient id="paint2_linear_2_1646" x1="32.0164" y1="15.1426" x2="32.0164" y2="32.9867" gradientUnits="userSpaceOnUse">
<stop stop-color="#EF8080"/>
<stop offset="1" stop-color="#F0145A"/>
</linearGradient>
<linearGradient id="paint3_linear_2_1646" x1="32.0165" y1="5.95459" x2="32.0165" y2="13.1379" gradientUnits="userSpaceOnUse">
<stop stop-color="#EF8080"/>
<stop offset="1" stop-color="#F0145A"/>
</linearGradient>
</defs>
</svg>
