<svg width="64" height="64" viewBox="0 0 64 64" fill="none" xmlns="http://www.w3.org/2000/svg">
<path d="M42.0059 56H23.0059V62H42.0059V56Z" fill="black"/>
<path d="M42.0059 56H23.0059V62H42.0059V56Z" fill="url(#paint0_linear_2_1660)"/>
<path d="M15.1728 2.45216L1.73779 15.8872L5.27333 19.4227L18.7084 5.98771L15.1728 2.45216Z" fill="black"/>
<path d="M15.1728 2.45216L1.73779 15.8872L5.27333 19.4227L18.7084 5.98771L15.1728 2.45216Z" fill="url(#paint1_linear_2_1660)"/>
<path d="M49.1127 2.3219L45.5771 5.85742L59.0122 19.2925L62.5477 15.757L49.1127 2.3219Z" fill="black"/>
<path d="M49.1127 2.3219L45.5771 5.85742L59.0122 19.2925L62.5477 15.757L49.1127 2.3219Z" fill="url(#paint2_linear_2_1660)"/>
<path d="M44.5564 9.70648L41.8651 9.59241C41.089 9.48286 40.2981 9.55517 39.5548 9.80362C38.8115 10.0521 38.1361 10.4699 37.5819 11.024L32.0775 16.5285L26.3239 10.775C25.8244 10.2869 25.2011 9.94433 24.5214 9.78417C23.8416 9.624 23.131 9.6523 22.4661 9.86603C21.8388 10.0568 21.1715 10.0735 20.5355 9.91444C19.8995 9.75537 19.3186 9.42646 18.8551 8.96288L18.0012 8.109L7.39453 18.7156L9.12253 20.4436L9.00845 23.1348C8.89891 23.9108 8.97122 24.7017 9.21966 25.445C9.46811 26.1884 9.8859 26.8638 10.4401 27.418L20.0525 37.0304C20.181 35.7686 20.7856 34.6032 21.7432 33.7715L18.7482 30.7765L19.4553 30.0695L22.5836 33.1977C23.027 32.9452 23.5068 32.7629 24.0059 32.6571V28.9632L22.2838 27.241L22.9908 26.5339L24.0059 27.5489V22.1991C23.9948 21.3148 24.3086 20.4572 24.8879 19.789C25.4672 19.1208 26.2716 18.6885 27.1485 18.5741C27.4792 18.542 27.8128 18.5571 28.1393 18.6189L26.9098 17.3894L27.6169 16.6823L29.4131 18.4785C29.7312 17.8621 30.2233 17.3527 30.8283 17.0135C31.4333 16.6742 32.1246 16.5201 32.8165 16.5702C33.6513 16.6677 34.4258 17.0542 35.0057 17.6628C35.5855 18.2713 35.9342 19.0636 35.9913 19.9022C36.5596 19.632 37.1894 19.5175 37.8165 19.5702C38.7075 19.6768 39.5273 20.1107 40.1166 20.7875C40.7059 21.4644 41.0229 22.336 41.0059 23.2333V26.6571C41.916 26.8472 42.7551 27.287 43.4292 27.9274C44.1032 28.5677 44.5855 29.3832 44.822 30.2823L47.6105 27.4938L48.3176 28.2009L45.0023 31.5162C45.0024 31.5299 45.0059 31.5427 45.0059 31.5565V34.8766C45.9043 34.7826 46.7437 34.3844 47.3848 33.7481L54.225 26.908C54.7131 26.4084 55.0556 25.7852 55.2158 25.1054C55.3759 24.4256 55.3476 23.715 55.1339 23.0501C54.9431 22.4228 54.9264 21.7555 55.0855 21.1195C55.2445 20.4835 55.5735 19.9026 56.0371 19.439L56.8909 18.5851L46.2844 7.97852L44.5564 9.70648Z" fill="black"/>
<path d="M44.5564 9.70648L41.8651 9.59241C41.089 9.48286 40.2981 9.55517 39.5548 9.80362C38.8115 10.0521 38.1361 10.4699 37.5819 11.024L32.0775 16.5285L26.3239 10.775C25.8244 10.2869 25.2011 9.94433 24.5214 9.78417C23.8416 9.624 23.131 9.6523 22.4661 9.86603C21.8388 10.0568 21.1715 10.0735 20.5355 9.91444C19.8995 9.75537 19.3186 9.42646 18.8551 8.96288L18.0012 8.109L7.39453 18.7156L9.12253 20.4436L9.00845 23.1348C8.89891 23.9108 8.97122 24.7017 9.21966 25.445C9.46811 26.1884 9.8859 26.8638 10.4401 27.418L20.0525 37.0304C20.181 35.7686 20.7856 34.6032 21.7432 33.7715L18.7482 30.7765L19.4553 30.0695L22.5836 33.1977C23.027 32.9452 23.5068 32.7629 24.0059 32.6571V28.9632L22.2838 27.241L22.9908 26.5339L24.0059 27.5489V22.1991C23.9948 21.3148 24.3086 20.4572 24.8879 19.789C25.4672 19.1208 26.2716 18.6885 27.1485 18.5741C27.4792 18.542 27.8128 18.5571 28.1393 18.6189L26.9098 17.3894L27.6169 16.6823L29.4131 18.4785C29.7312 17.8621 30.2233 17.3527 30.8283 17.0135C31.4333 16.6742 32.1246 16.5201 32.8165 16.5702C33.6513 16.6677 34.4258 17.0542 35.0057 17.6628C35.5855 18.2713 35.9342 19.0636 35.9913 19.9022C36.5596 19.632 37.1894 19.5175 37.8165 19.5702C38.7075 19.6768 39.5273 20.1107 40.1166 20.7875C40.7059 21.4644 41.0229 22.336 41.0059 23.2333V26.6571C41.916 26.8472 42.7551 27.287 43.4292 27.9274C44.1032 28.5677 44.5855 29.3832 44.822 30.2823L47.6105 27.4938L48.3176 28.2009L45.0023 31.5162C45.0024 31.5299 45.0059 31.5427 45.0059 31.5565V34.8766C45.9043 34.7826 46.7437 34.3844 47.3848 33.7481L54.225 26.908C54.7131 26.4084 55.0556 25.7852 55.2158 25.1054C55.3759 24.4256 55.3476 23.715 55.1339 23.0501C54.9431 22.4228 54.9264 21.7555 55.0855 21.1195C55.2445 20.4835 55.5735 19.9026 56.0371 19.439L56.8909 18.5851L46.2844 7.97852L44.5564 9.70648Z" fill="url(#paint3_linear_2_1660)"/>
<path d="M29.8802 21.6896C29.8042 21.04 29.4757 20.4463 28.9657 20.0368C28.4557 19.6273 27.8051 19.4348 27.1544 19.501C26.5232 19.5881 25.946 19.9041 25.5326 20.3889C25.1192 20.8738 24.8984 21.4936 24.9121 22.1306V33.488C23.8512 33.488 22.8338 33.9094 22.0837 34.6595C21.3335 35.4097 20.9121 36.4271 20.9121 37.488V47.1614C20.9202 47.8598 21.1187 48.5427 21.4861 49.1366C21.8536 49.7306 22.376 50.213 22.9973 50.532C23.5757 50.8407 24.0594 51.3007 24.3967 51.8629C24.734 52.4251 24.9121 53.0684 24.9121 53.724V54.9316H39.9121V52.488L41.8958 50.6656C42.522 50.1943 43.0301 49.5839 43.38 48.8827C43.73 48.1814 43.9121 47.4083 43.9121 46.6246V31.488C43.9121 30.4271 43.4907 29.4097 42.7405 28.6595C41.9904 27.9094 40.973 27.488 39.9121 27.488V23.1654C39.9291 22.5182 39.706 21.8875 39.2857 21.395C38.8655 20.9025 38.2778 20.5829 37.636 20.4978C37.006 20.4422 36.3785 20.628 35.8804 21.0178C35.3824 21.4075 35.0511 21.972 34.9537 22.5969H35.4121V38.0402H34.4121V22.5969H34.9121V20.1654C34.9291 19.5182 34.706 18.8875 34.2857 18.395C33.8655 17.9025 33.2778 17.5829 32.636 17.4978C32.2902 17.4668 31.9417 17.5081 31.6128 17.6191C31.2838 17.7302 30.9816 17.9085 30.7254 18.1427C30.4691 18.377 30.2645 18.662 30.1245 18.9797C29.9845 19.2974 29.9121 19.6408 29.9121 19.988V21.6896H30.4121V37.133H29.4121V21.6896H29.8802ZM25.3113 42.0402H24.3113V34.0402H25.3113V42.0402ZM39.4121 27.7985H40.4121V38.2418H39.4121V27.7985Z" fill="black"/>
<path d="M29.8802 21.6896C29.8042 21.04 29.4757 20.4463 28.9657 20.0368C28.4557 19.6273 27.8051 19.4348 27.1544 19.501C26.5232 19.5881 25.946 19.9041 25.5326 20.3889C25.1192 20.8738 24.8984 21.4936 24.9121 22.1306V33.488C23.8512 33.488 22.8338 33.9094 22.0837 34.6595C21.3335 35.4097 20.9121 36.4271 20.9121 37.488V47.1614C20.9202 47.8598 21.1187 48.5427 21.4861 49.1366C21.8536 49.7306 22.376 50.213 22.9973 50.532C23.5757 50.8407 24.0594 51.3007 24.3967 51.8629C24.734 52.4251 24.9121 53.0684 24.9121 53.724V54.9316H39.9121V52.488L41.8958 50.6656C42.522 50.1943 43.0301 49.5839 43.38 48.8827C43.73 48.1814 43.9121 47.4083 43.9121 46.6246V31.488C43.9121 30.4271 43.4907 29.4097 42.7405 28.6595C41.9904 27.9094 40.973 27.488 39.9121 27.488V23.1654C39.9291 22.5182 39.706 21.8875 39.2857 21.395C38.8655 20.9025 38.2778 20.5829 37.636 20.4978C37.006 20.4422 36.3785 20.628 35.8804 21.0178C35.3824 21.4075 35.0511 21.972 34.9537 22.5969H35.4121V38.0402H34.4121V22.5969H34.9121V20.1654C34.9291 19.5182 34.706 18.8875 34.2857 18.395C33.8655 17.9025 33.2778 17.5829 32.636 17.4978C32.2902 17.4668 31.9417 17.5081 31.6128 17.6191C31.2838 17.7302 30.9816 17.9085 30.7254 18.1427C30.4691 18.377 30.2645 18.662 30.1245 18.9797C29.9845 19.2974 29.9121 19.6408 29.9121 19.988V21.6896H30.4121V37.133H29.4121V21.6896H29.8802ZM25.3113 42.0402H24.3113V34.0402H25.3113V42.0402ZM39.4121 27.7985H40.4121V38.2418H39.4121V27.7985Z" fill="url(#paint4_linear_2_1660)"/>
<defs>
<linearGradient id="paint0_linear_2_1660" x1="32.5059" y1="56" x2="32.5059" y2="62" gradientUnits="userSpaceOnUse">
<stop stop-color="#EF8080"/>
<stop offset="1" stop-color="#F0145A"/>
</linearGradient>
<linearGradient id="paint1_linear_2_1660" x1="8.45531" y1="9.16969" x2="11.9909" y2="12.7052" gradientUnits="userSpaceOnUse">
<stop stop-color="#EF8080"/>
<stop offset="1" stop-color="#F0145A"/>
</linearGradient>
<linearGradient id="paint2_linear_2_1660" x1="47.3449" y1="4.08966" x2="60.78" y2="17.5247" gradientUnits="userSpaceOnUse">
<stop stop-color="#EF8080"/>
<stop offset="1" stop-color="#F0145A"/>
</linearGradient>
<linearGradient id="paint3_linear_2_1660" x1="32.1427" y1="7.97852" x2="32.1427" y2="37.0304" gradientUnits="userSpaceOnUse">
<stop stop-color="#EF8080"/>
<stop offset="1" stop-color="#F0145A"/>
</linearGradient>
<linearGradient id="paint4_linear_2_1660" x1="32.4121" y1="17.4878" x2="32.4121" y2="54.9316" gradientUnits="userSpaceOnUse">
<stop stop-color="#EF8080"/>
<stop offset="1" stop-color="#F0145A"/>
</linearGradient>
</defs>
</svg>
